<svg width="22" height="19" viewBox="0 0 22 19" fill="none" xmlns="http://www.w3.org/2000/svg">
<path d="M8.16385 0.510498H1.42011C0.997875 0.510498 0.654053 0.907118 0.654053 1.3942V6.6268C0.654053 7.11388 0.997875 7.5105 1.42011 7.5105H8.16385C8.58609 7.5105 8.92991 7.11388 8.92991 6.6268V1.3942C8.92991 0.907118 8.58609 0.510498 8.16385 0.510498ZM8.36894 6.17451C8.36894 6.48068 8.15179 6.73117 7.88638 6.73117H1.99315C1.72774 6.73117 1.51059 6.48068 1.51059 6.17451V1.66557C1.51059 1.3594 1.72774 1.10891 1.99315 1.10891H7.89242C8.15782 1.10891 8.37497 1.3594 8.37497 1.66557V6.17451H8.36894Z" fill="#D11243" stroke="#D11243" stroke-width="0.5"/>
<path d="M8.16385 11.4895H1.42011C0.997875 11.4895 0.654053 11.8861 0.654053 12.3732V17.6058C0.654053 18.0929 0.997875 18.4895 1.42011 18.4895H8.16385C8.58609 18.4895 8.92991 18.0929 8.92991 17.6058V12.3732C8.92991 11.8861 8.58609 11.4895 8.16385 11.4895ZM8.36894 17.1535C8.36894 17.4597 8.15179 17.7102 7.88638 17.7102H1.99315C1.72774 17.7102 1.51059 17.4597 1.51059 17.1535V12.6446C1.51059 12.3384 1.72774 12.0879 1.99315 12.0879H7.89242C8.15782 12.0879 8.37497 12.3384 8.37497 12.6446V17.1535H8.36894Z" fill="black" stroke="black" stroke-width="0.5"/>
<path d="M20.2469 0.510498H13.5031C13.0809 0.510498 12.7371 0.907118 12.7371 1.3942V6.6268C12.7371 7.11388 13.0809 7.5105 13.5031 7.5105H20.2469C20.6691 7.5105 21.0129 7.11388 21.0129 6.6268V1.3942C21.0129 0.907118 20.6691 0.510498 20.2469 0.510498ZM20.4519 6.17451C20.4519 6.48068 20.2348 6.73117 19.9694 6.73117H14.0762C13.8108 6.73117 13.5936 6.48068 13.5936 6.17451V1.66557C13.5936 1.3594 13.8108 1.10891 14.0762 1.10891H19.9754C20.2408 1.10891 20.458 1.3594 20.458 1.66557V6.17451H20.4519Z" fill="black" stroke="black" stroke-width="0.5"/>
<path d="M20.2469 11.4895H13.5031C13.0809 11.4895 12.7371 11.8861 12.7371 12.3732V17.6058C12.7371 18.0929 13.0809 18.4895 13.5031 18.4895H20.2469C20.6691 18.4895 21.0129 18.0929 21.0129 17.6058V12.3732C21.0129 11.8861 20.6691 11.4895 20.2469 11.4895ZM20.4519 17.1535C20.4519 17.4597 20.2348 17.7102 19.9694 17.7102H14.0762C13.8108 17.7102 13.5936 17.4597 13.5936 17.1535V12.6446C13.5936 12.3384 13.8108 12.0879 14.0762 12.0879H19.9754C20.2408 12.0879 20.458 12.3384 20.458 12.6446V17.1535H20.4519Z" fill="black" stroke="black" stroke-width="0.5"/>
</svg>
